<svg width="24" height="25" viewBox="0 0 24 25" fill="none" xmlns="http://www.w3.org/2000/svg">
<path fill-rule="evenodd" clip-rule="evenodd" d="M21 12.5C21 17.4706 16.9706 21.5 12 21.5C7.02944 21.5 3 17.4706 3 12.5C3 7.52944 7.02944 3.5 12 3.5C16.9706 3.5 21 7.52944 21 12.5ZM22 12.5C22 18.0228 17.5228 22.5 12 22.5C6.47715 22.5 2 18.0228 2 12.5C2 6.97715 6.47715 2.5 12 2.5C17.5228 2.5 22 6.97715 22 12.5ZM7.23757 8.47852L7.97831 7.73778L12.0523 11.8118L16.1263 7.73781L16.8671 8.47855L12.7931 12.5526L16.8672 16.6267L16.1265 17.3674L12.0523 13.2933L7.9782 17.3674L7.23746 16.6267L11.3116 12.5526L7.23757 8.47852Z" fill="#232323"/>
</svg>
