<svg width="30" height="30" viewBox="0 0 30 30" fill="none" xmlns="http://www.w3.org/2000/svg">
<path fill-rule="evenodd" clip-rule="evenodd" d="M6.65744 22H6.5492C6.40645 21.9979 6.27029 21.9359 6.17038 21.8277C6.03727 21.6838 5.97699 21.4811 6.00801 21.2821L7.14445 15.7399C7.17232 15.6381 7.22903 15.5479 7.30682 15.4815L16.1281 6.09135C16.7631 5.38643 17.6445 4.99151 18.5634 5.00014C19.4765 4.99393 20.3538 5.37664 20.9987 6.0626C21.6417 6.7612 22.0011 7.69927 21.9999 8.67577C22.0057 9.64473 21.6451 10.5757 20.9987 11.2602L12.1504 20.6504C12.0759 20.7259 11.9816 20.7759 11.8799 20.7939L6.65744 22ZM20.9177 8.64691C20.9176 7.26714 19.8636 6.14867 18.5634 6.14878C17.9452 6.14587 17.3513 6.4042 16.9128 6.86662L20.2411 10.4274C20.6821 9.96578 20.9264 9.33309 20.9176 8.67577L20.9177 8.64691ZM19.4834 11.2315L16.1552 7.69944L8.44331 15.8835L11.7716 19.3868L19.4834 11.2315ZM10.6892 19.875L8.01038 17.0322L7.2527 20.6791L10.6892 19.875ZM5.56338 25H24.4366C24.7478 25 25 25.2238 25 25.5C25 25.7761 24.7478 26 24.4366 26H5.56338C5.25222 26 5 25.7761 5 25.5C5 25.2238 5.25222 25 5.56338 25Z" fill="#232323" fill-opacity="0.5"/>
</svg>
