<svg width="27" height="27" viewBox="0 0 27 27" fill="none" xmlns="http://www.w3.org/2000/svg">
<path fill-rule="evenodd" clip-rule="evenodd" d="M6.5 3.375C5.39543 3.375 4.5 4.27043 4.5 5.375V12.625C4.5 13.7296 5.39543 14.625 6.5 14.625H20.5C21.6046 14.625 22.5 13.7296 22.5 12.625V5.375C22.5 4.27043 21.6046 3.375 20.5 3.375H6.5ZM6.625 4.5C6.07272 4.5 5.625 4.94772 5.625 5.5V12.5C5.625 13.0523 6.07272 13.5 6.625 13.5H20.375C20.9273 13.5 21.375 13.0523 21.375 12.5V5.5C21.375 4.94772 20.9273 4.5 20.375 4.5H6.625ZM6.5 18C5.39543 18 4.5 18.8954 4.5 20V23.625H5.625V20.125C5.625 19.5727 6.07272 19.125 6.625 19.125H20.375C20.9273 19.125 21.375 19.5727 21.375 20.125V23.625H22.5V20C22.5 18.8954 21.6046 18 20.5 18H6.5ZM6.2625 15.75C5.95184 15.75 5.7 16.0018 5.7 16.3125C5.7 16.6232 5.95184 16.875 6.2625 16.875H20.7375C21.0482 16.875 21.3 16.6232 21.3 16.3125C21.3 16.0018 21.0482 15.75 20.7375 15.75H6.2625Z" fill="black"/>
</svg>
