<svg width="35" height="35" viewBox="0 0 35 35" fill="none" xmlns="http://www.w3.org/2000/svg">
<path d="M17.5001 0.933105L12.0022 4.37477H7.29175V7.29144L4.33133 9.17269C3.4855 9.68311 2.91675 10.6019 2.91675 11.6664V26.2498C2.91675 27.8685 4.22925 29.1664 5.83342 29.1664H29.1668C30.7855 29.1664 32.0834 27.8685 32.0834 26.2498V11.6664C32.0834 10.6019 31.5147 9.68311 30.6688 9.17269L27.7084 7.29144V4.37477H22.998L17.5001 0.933105ZM10.2084 7.29144H24.7917V14.4081L17.5001 18.9581L10.2084 14.4081V7.29144ZM11.6667 8.74977V10.9373H23.3334V8.74977H11.6667ZM7.29175 10.7623V12.5852L5.83342 11.6664L7.29175 10.7623ZM27.7084 10.7623L29.1668 11.6664L27.7084 12.5852V10.7623ZM11.6667 12.3956V14.5831H23.3334V12.3956H11.6667Z" fill="white"/>
</svg>
