<svg width="35" height="35" viewBox="0 0 35 35" fill="none" xmlns="http://www.w3.org/2000/svg">
<path d="M12.0022 4.87477H12.1458L12.2675 4.79858L17.5001 1.52299L22.7327 4.79858L22.8544 4.87477H22.998H27.2084V7.29144V7.56612L27.4402 7.71344L30.4007 9.59469L30.4006 9.5948L30.4105 9.60078C31.1147 10.0257 31.5834 10.7865 31.5834 11.6664V26.2498C31.5834 27.5924 30.5094 28.6664 29.1668 28.6664H5.83342C4.50376 28.6664 3.41675 27.5908 3.41675 26.2498V11.6664C3.41675 10.7865 3.8855 10.0257 4.58966 9.60078L4.58973 9.6009L4.5995 9.59469L7.55992 7.71344L7.79175 7.56612V7.29144V4.87477H12.0022ZM10.2084 6.79144H9.70842V7.29144V14.4081V14.6855L9.94372 14.8323L17.2354 19.3823L17.5001 19.5475L17.7648 19.3823L25.0564 14.8323L25.2917 14.6855V14.4081V7.29144V6.79144H24.7917H10.2084ZM7.79175 10.7623V9.86397L7.02828 10.3373L5.56995 11.2415L4.89001 11.663L5.5669 12.0895L7.02523 13.0082L7.79175 13.4911V12.5852V10.7623ZM27.9719 10.3373L27.2084 9.86397V10.7623V12.5852V13.4911L27.9749 13.0082L29.4333 12.0895L30.1102 11.663L29.4302 11.2415L27.9719 10.3373ZM22.8334 10.4373H12.1667V9.24977H22.8334V10.4373ZM22.8334 14.0831H12.1667V12.8956H22.8334V14.0831Z" stroke="white"/>
</svg>
