<svg width="24" height="25" viewBox="0 0 24 25" fill="none" xmlns="http://www.w3.org/2000/svg">
<path d="M11 6.5001H14L17.29 3.2001C17.3829 3.10637 17.4935 3.03197 17.6154 2.9812C17.7373 2.93044 17.868 2.9043 18 2.9043C18.132 2.9043 18.2627 2.93044 18.3846 2.9812C18.5064 3.03197 18.617 3.10637 18.71 3.2001L21.29 5.7901C21.4762 5.97746 21.5808 6.23091 21.5808 6.4951C21.5808 6.75928 21.4762 7.01273 21.29 7.2001L19 9.5001H11V11.5001C11 11.7653 10.8946 12.0197 10.7071 12.2072C10.5196 12.3947 10.2652 12.5001 9.99998 12.5001C9.73477 12.5001 9.48041 12.3947 9.29288 12.2072C9.10534 12.0197 8.99998 11.7653 8.99998 11.5001V8.5001C8.99998 7.96966 9.2107 7.46095 9.58577 7.08588C9.96084 6.71081 10.4695 6.5001 11 6.5001ZM4.99998 11.5001V15.5001L2.70998 17.7901C2.52373 17.9775 2.41919 18.2309 2.41919 18.4951C2.41919 18.7593 2.52373 19.0127 2.70998 19.2001L5.28998 21.7901C5.38295 21.8838 5.49355 21.9582 5.61541 22.009C5.73726 22.0598 5.86797 22.0859 5.99998 22.0859C6.13199 22.0859 6.2627 22.0598 6.38456 22.009C6.50642 21.9582 6.61702 21.8838 6.70998 21.7901L11 17.5001H15C15.2652 17.5001 15.5196 17.3947 15.7071 17.2072C15.8946 17.0197 16 16.7653 16 16.5001V15.5001H17C17.2652 15.5001 17.5196 15.3947 17.7071 15.2072C17.8946 15.0197 18 14.7653 18 14.5001V13.5001H19C19.2652 13.5001 19.5196 13.3947 19.7071 13.2072C19.8946 13.0197 20 12.7653 20 12.5001V11.5001H13V12.5001C13 13.0305 12.7893 13.5392 12.4142 13.9143C12.0391 14.2894 11.5304 14.5001 11 14.5001H8.99998C8.46955 14.5001 7.96084 14.2894 7.58577 13.9143C7.2107 13.5392 6.99998 13.0305 6.99998 12.5001V9.5001L4.99998 11.5001Z" fill="#D20A11"/>
</svg>
