<svg width="24" height="24" viewBox="0 0 24 24" fill="none" xmlns="http://www.w3.org/2000/svg">
<path fill-rule="evenodd" clip-rule="evenodd" d="M17.3999 2.53186L18.0927 2.93186L6.89272 22.3308L6.1999 21.9308L17.3999 2.53186ZM13.5194 5.09652C13.0272 5.03361 12.5205 4.99976 11.9999 4.99976C5.83883 4.99976 0.348744 11.4039 0.11774 11.6769C-0.0392467 11.8629 -0.0392467 12.1359 0.11774 12.3229C0.274254 12.5078 2.84499 15.5073 6.40293 17.4226L6.9089 16.5462C4.13189 15.0501 1.93499 12.8252 1.17179 11.9999C2.36281 10.7089 7.05389 5.9998 11.9999 5.9998C12.3297 5.9998 12.6538 6.01511 12.9722 6.04422L13.5194 5.09652ZM11.2927 17.9685C11.5276 17.9892 11.7635 18 11.9999 18C16.981 18 21.7041 13.2219 22.8541 11.9729C22.208 11.149 20.2645 8.8805 17.4011 7.3883L17.9112 6.50475C21.5958 8.42619 23.7812 11.5269 23.9111 11.7159C24.0401 11.9019 24.0271 12.1509 23.8821 12.3229C23.6511 12.5959 18.1611 19 11.9999 19C11.5786 19 11.1603 18.97 10.7467 18.9141L11.2927 17.9685ZM8 12C8 9.84714 9.7086 8.08666 11.8413 8.00305L11.2038 9.10729C9.93487 9.45708 9 10.6216 9 12C9 12.2613 9.0336 12.515 9.0967 12.7568L8.45946 13.8605C8.16614 13.3045 8 12.6713 8 12ZM15.0001 12C15.0001 13.2525 14.2282 14.3284 13.1353 14.777L12.4432 15.9757C14.4414 15.7545 16.0001 14.0562 16.0001 12C16.0001 11.4299 15.8803 10.8874 15.6645 10.3962L14.9728 11.5944C14.9908 11.7271 15.0001 11.8625 15.0001 12Z" fill="white"/>
</svg>
