<svg width="30" height="30" viewBox="0 0 30 30" fill="none" xmlns="http://www.w3.org/2000/svg">
<path d="M17.5 2.5L25 10V25C25 25.663 24.7366 26.2989 24.2678 26.7678C23.7989 27.2366 23.163 27.5 22.5 27.5H7.5C6.83696 27.5 6.20107 27.2366 5.73223 26.7678C5.26339 26.2989 5 25.663 5 25V5C5 4.33696 5.26339 3.70107 5.73223 3.23223C6.20107 2.76339 6.83696 2.5 7.5 2.5H17.5ZM23.75 26.25V10H17.5V3.75H6.25V26.25H23.75ZM13.65 15.3875C13.35 14.425 12.6875 11.35 14.4375 11.3C16.1875 11.25 15.0375 15.2 15.0375 15.2C15.525 17.0625 17.5625 18.4 17.5625 18.4C18.1875 18.2125 21.75 17.8 21.25 19.65C20.7125 21.5 16.875 19.7625 16.875 19.7625C14.4375 19.9375 12.6125 20.5875 12.6125 20.5875C11.2 23.225 9.55 24.375 8.875 23.2625C8.0375 21.875 11.5375 20.0875 11.5375 20.0875C13.35 17.15 13.625 15.4375 13.65 15.3875ZM14.4625 16.4375C13.9625 18.0625 12.9625 19.8 12.9625 19.8C14.025 19.375 16.35 18.8875 16.35 18.8875C14.925 17.6375 14.4875 16.45 14.4625 16.4375ZM18.3875 19.15C18.3875 19.15 20.575 19.9625 20.625 19.6375C20.7125 19.3 18.9625 19 18.3875 19.15ZM11.3125 21.0125C10.35 21.3875 9.425 22.9875 9.65 22.9875C9.875 23 10.7875 22.2375 11.3125 21.0125ZM14.4625 14.075C14.4625 14.0125 15 11.975 14.4625 11.9125C14.0875 11.875 14.45 14.025 14.4625 14.075Z" fill="#232323"/>
</svg>
