<svg width="28" height="28" viewBox="0 0 28 28" fill="none" xmlns="http://www.w3.org/2000/svg">
<path fill-rule="evenodd" clip-rule="evenodd" d="M17.0807 2.79792C16.0544 2.65493 15.0086 2.80931 14.0674 3.24276C13.1262 3.67621 12.3291 4.37054 11.7706 5.24337C11.2742 6.01926 10.9848 6.90728 10.9272 7.82284C8.37055 8.3813 6.45651 10.6583 6.45651 13.3826C6.45651 14.5037 6.78072 15.5492 7.34052 16.4303C6.07642 17.1794 5.00242 18.2179 4.20998 19.4654C3.2538 20.9706 2.74729 22.7176 2.75001 24.5009C2.75052 24.8342 2.97099 25.1273 3.29116 25.2201C3.61133 25.3129 3.95434 25.1833 4.13308 24.9019L8.61563 17.8452C9.58599 18.6142 10.813 19.0734 12.1473 19.0734C13.4813 19.0734 14.7081 18.6144 15.6783 17.8458L20.1616 24.902C20.3404 25.1833 20.6835 25.3129 21.0036 25.2201C21.3238 25.1272 21.5442 24.8342 21.5447 24.5008C21.5472 22.7174 21.0404 20.9704 20.084 19.4652C19.2916 18.2179 18.2177 17.1797 16.9539 16.4307C17.5138 15.5495 17.8382 14.5039 17.8382 13.3826C17.8382 13.3771 17.8382 13.3716 17.8382 13.3662C18.284 13.2372 18.7111 13.0516 19.1089 12.8142C20.3847 13.3775 21.4883 14.2737 22.302 15.4119C23.1892 16.6529 23.6929 18.127 23.7505 19.6514C23.7662 20.0653 24.1144 20.3882 24.5284 20.3725C24.9423 20.3569 25.2651 20.0087 25.2495 19.5947C25.1807 17.777 24.5802 16.0193 23.5222 14.5395C22.6957 13.3835 21.6185 12.4368 20.3772 11.7664C20.9185 11.1591 21.3179 10.4353 21.5424 9.64758C21.8265 8.65106 21.8187 7.59398 21.5201 6.60173C21.2215 5.60948 20.6445 4.72371 19.8576 4.04949C19.0708 3.37528 18.107 2.94091 17.0807 2.79792ZM18.6399 11.3281C18.7382 11.2565 18.8333 11.1802 18.925 11.0993C19.4867 10.6035 19.8945 9.95696 20.0999 9.2364C20.3053 8.51584 20.2997 7.75149 20.0837 7.03402C19.8678 6.31655 19.4506 5.67606 18.8816 5.18855C18.3127 4.70104 17.6158 4.38696 16.8737 4.28357C16.1316 4.18017 15.3754 4.29181 14.6949 4.60523C14.0143 4.91864 13.438 5.42069 13.0341 6.05182C12.7146 6.55115 12.5137 7.1147 12.4441 7.69936C14.9277 7.82694 16.9905 9.54675 17.6316 11.858C17.9571 11.7436 18.2664 11.5866 18.5513 11.3908C18.5794 11.3677 18.609 11.3468 18.6399 11.3281ZM16.2948 12.7774C16.0015 10.7496 14.2564 9.19175 12.1473 9.19175C12.0426 9.19175 11.9388 9.19559 11.836 9.20314C11.808 9.20913 11.7793 9.21359 11.7501 9.2164C11.72 9.2193 11.6901 9.22037 11.6606 9.21971C9.5753 9.46088 7.95651 11.2326 7.95651 13.3826C7.95651 15.6971 9.83273 17.5734 12.1473 17.5734C14.4618 17.5734 16.3382 15.6971 16.3382 13.3826C16.3382 13.2378 16.3308 13.0947 16.3165 12.9537C16.3113 12.9326 16.3071 12.9111 16.3037 12.8892C16.2979 12.8517 16.295 12.8143 16.2948 12.7774Z" fill="#232323"/>
</svg>
