<svg width="20" height="20" viewBox="0 0 20 20" fill="none" xmlns="http://www.w3.org/2000/svg">
<path fill-rule="evenodd" clip-rule="evenodd" d="M17.7789 5.3771C17.4462 5.02856 16.9868 4.8226 16.464 4.8226H13.834V4.79092C13.834 4.39484 13.6756 4.01462 13.4063 3.76113C13.137 3.4918 12.7726 3.33337 12.3765 3.33337H7.62366C7.21174 3.33337 6.84736 3.4918 6.57803 3.76113C6.3087 4.03046 6.15027 4.39484 6.15027 4.79092V4.8226H3.5362C3.01339 4.8226 2.55395 5.02856 2.22125 5.3771C1.88855 5.7098 1.66675 6.18509 1.66675 6.69206V14.5818C1.66675 15.1046 1.8727 15.564 2.22125 15.8967C2.55395 16.2294 3.02923 16.4512 3.5362 16.4512H16.464C16.9868 16.4512 17.4462 16.2453 17.7789 15.8967C18.1116 15.564 18.3334 15.0888 18.3334 14.5818V6.69206C18.3334 6.16924 18.1275 5.7098 17.7789 5.3771ZM17.5096 14.5818H17.4937C17.4937 14.867 17.3828 15.1204 17.1927 15.3106C17.0026 15.5007 16.7491 15.6116 16.464 15.6116H3.5362C3.25103 15.6116 2.99755 15.5007 2.80743 15.3106C2.61732 15.1204 2.50642 14.867 2.50642 14.5818V6.69206C2.50642 6.40688 2.61732 6.1534 2.80743 5.96328C2.99755 5.77317 3.25103 5.66227 3.5362 5.66227H6.59387C6.83151 5.66227 7.02163 5.47216 7.02163 5.23451V4.77507C7.02163 4.6008 7.085 4.44237 7.1959 4.33147C7.3068 4.22057 7.46523 4.1572 7.6395 4.1572H12.3765C12.5508 4.1572 12.7092 4.22057 12.8201 4.33147C12.931 4.44237 12.9944 4.6008 12.9944 4.77507V5.23451C12.9944 5.47216 13.1845 5.66227 13.4221 5.66227H16.4798C16.765 5.66227 17.0185 5.77317 17.2086 5.96328C17.3987 6.1534 17.5096 6.40688 17.5096 6.69206V14.5818ZM10.0002 6.7396C8.92291 6.7396 7.94065 7.1832 7.24357 7.88028C6.53064 8.59321 6.10288 9.55962 6.10288 10.6369C6.10288 11.7143 6.54648 12.6965 7.24357 13.3936C7.9565 14.1065 8.92291 14.5343 10.0002 14.5343C11.0775 14.5343 12.0598 14.0907 12.7569 13.3936C13.4698 12.6807 13.8976 11.7143 13.8976 10.6369C13.8976 9.55962 13.454 8.57737 12.7569 7.88028C12.0598 7.1832 11.0775 6.7396 10.0002 6.7396ZM12.1549 12.8074C11.6004 13.3461 10.8399 13.6946 10.0002 13.6946C9.16055 13.6946 8.4001 13.3461 7.8456 12.8074C7.2911 12.2529 6.9584 11.4925 6.9584 10.6528C6.9584 9.81311 7.30694 9.05265 7.8456 8.49815C8.4001 7.94365 9.16055 7.61095 10.0002 7.61095C10.8399 7.61095 11.6004 7.9595 12.1549 8.49815C12.7094 9.05265 13.0421 9.81311 13.0421 10.6528C13.0579 11.4925 12.7094 12.2529 12.1549 12.8074ZM16.4164 7.50002C16.4164 7.92876 16.0689 8.27632 15.6401 8.27632C15.2114 8.27632 14.8638 7.92876 14.8638 7.50002C14.8638 7.07129 15.2114 6.72373 15.6401 6.72373C16.0689 6.72373 16.4164 7.07129 16.4164 7.50002Z" fill="white"/>
</svg>
