<svg width="40" height="40" viewBox="0 0 40 40" fill="none" xmlns="http://www.w3.org/2000/svg">
<path d="M16.6668 27.5002V12.5002L26.6668 20.0002L16.6668 27.5002ZM20.0002 3.3335C17.8115 3.3335 15.6442 3.76459 13.6221 4.60217C11.6 5.43975 9.76269 6.66741 8.21505 8.21505C5.08944 11.3407 3.3335 15.5799 3.3335 20.0002C3.3335 24.4204 5.08944 28.6597 8.21505 31.7853C9.76269 33.3329 11.6 34.5606 13.6221 35.3982C15.6442 36.2357 17.8115 36.6668 20.0002 36.6668C24.4204 36.6668 28.6597 34.9109 31.7853 31.7853C34.9109 28.6597 36.6668 24.4204 36.6668 20.0002C36.6668 17.8115 36.2357 15.6442 35.3982 13.6221C34.5606 11.6 33.3329 9.76269 31.7853 8.21505C30.2376 6.66741 28.4003 5.43975 26.3782 4.60217C24.3561 3.76459 22.1889 3.3335 20.0002 3.3335Z" fill="#D20A11"/>
</svg>
