<svg width="30" height="30" viewBox="0 0 30 30" fill="none" xmlns="http://www.w3.org/2000/svg">
<path d="M13.6067 19.6234V18.4778C13.6067 17.3986 13.8723 16.5519 14.4036 15.9376C14.9349 15.3067 15.8149 14.8335 17.0435 14.5181C18.0231 14.2524 18.7204 13.8706 19.1355 13.3725C19.5672 12.8744 19.783 12.202 19.783 11.3553C19.783 10.2761 19.3845 9.44599 18.5876 8.8649C17.8072 8.28381 16.6865 7.99327 15.2255 7.99327C13.8142 7.99327 12.7018 8.30042 11.8882 8.91471C11.0747 9.5124 10.6679 10.3425 10.6679 11.4051H8.75024C8.75024 9.79465 9.32305 8.53285 10.4687 7.61971C11.6309 6.70657 13.2248 6.25 15.2504 6.25C17.2593 6.25 18.8366 6.70657 19.9823 7.61971C21.1279 8.51625 21.7007 9.76144 21.7007 11.3553C21.7007 12.6171 21.3935 13.6215 20.7792 14.3687C20.1815 15.1158 19.1853 15.7052 17.7906 16.1368C16.9273 16.3859 16.3379 16.693 16.0224 17.0583C15.707 17.4069 15.5492 17.9299 15.5492 18.6272V19.6234H13.6067ZM15.4496 23.7325C15.2172 23.9649 14.9183 24.0812 14.553 24.0812C14.1878 24.0812 13.8889 23.9649 13.6565 23.7325C13.424 23.5001 13.3078 23.2095 13.3078 22.8609C13.3078 22.479 13.4157 22.1802 13.6316 21.9643C13.864 21.7319 14.1712 21.6157 14.553 21.6157C14.9183 21.6157 15.2172 21.7319 15.4496 21.9643C15.682 22.1968 15.7983 22.4956 15.7983 22.8609C15.7983 23.2095 15.682 23.5001 15.4496 23.7325Z" fill="#FF0000"/>
</svg>
