<svg width="27" height="27" viewBox="0 0 27 27" fill="none" xmlns="http://www.w3.org/2000/svg">
<path d="M16.5034 2.53125L20.3847 11.925V4.78125C20.3847 4.18451 20.1476 3.61222 19.7257 3.19026C19.3037 2.7683 18.7314 2.53125 18.1347 2.53125H16.5034ZM22.6459 4.26375V14.4225L25.3797 7.83C25.8409 6.6825 25.3122 5.3775 24.1534 4.905L22.6459 4.26375Z" fill="#232323"/>
<path fill-rule="evenodd" clip-rule="evenodd" d="M7.81619 23.2886C8.24778 24.3054 9.4219 24.7798 10.4387 24.3482L19.1835 20.6362C20.2002 20.2046 20.6746 19.0305 20.243 18.0138L14.3332 4.09112C13.9016 3.07436 12.7275 2.59999 11.7107 3.03157L2.96593 6.74352C1.94917 7.17511 1.4748 8.34923 1.90639 9.36599L7.81619 23.2886ZM8.9829 22.5813C9.1987 23.0897 9.78576 23.3269 10.2941 23.1111L18.3946 19.6727C18.903 19.4569 19.1401 18.8698 18.9244 18.3614L13.1672 4.79836C12.9514 4.28998 12.3643 4.05279 11.8559 4.26859L3.7555 7.70702C3.24712 7.92281 3.00993 8.50987 3.22572 9.01825L8.9829 22.5813Z" fill="#232323"/>
</svg>
