<svg width="24" height="25" viewBox="0 0 24 25" fill="none" xmlns="http://www.w3.org/2000/svg">
<path fill-rule="evenodd" clip-rule="evenodd" d="M14.0962 5.40381C12.8772 4.18482 11.2239 3.5 9.5 3.5C7.77609 3.5 6.12279 4.18482 4.90381 5.40381C3.68482 6.62279 3 8.27609 3 10C3 11.7239 3.68482 13.3772 4.90381 14.5962C6.12279 15.8152 7.77609 16.5 9.5 16.5C11.11 16.5 12.59 15.91 13.73 14.94L14 15.21V16L19 21L20.5 19.5L15.5 14.5H14.71L14.44 14.23C15.41 13.09 16 11.61 16 10C16 8.27609 15.3152 6.62279 14.0962 5.40381ZM9.5 15.5C12.5376 15.5 15 13.0376 15 10C15 6.96243 12.5376 4.5 9.5 4.5C6.46243 4.5 4 6.96243 4 10C4 13.0376 6.46243 15.5 9.5 15.5Z" fill="#232323"/>
</svg>
