<svg width="28" height="28" viewBox="0 0 28 28" fill="none" xmlns="http://www.w3.org/2000/svg">
<path fill-rule="evenodd" clip-rule="evenodd" d="M12.911 25.6666H15.0888C15.8248 25.6666 16.446 25.1153 16.5345 24.3862L16.7669 22.5584C17.2306 22.4087 17.6778 22.223 18.1027 22.0052L19.5562 23.1339C20.1434 23.5909 20.9737 23.5374 21.4802 23.0153L23.0114 21.4841C23.5384 20.9727 23.5919 20.1434 23.1349 19.5542L22.0062 18.1017C22.223 17.6769 22.4087 17.2296 22.5594 16.7659L24.3833 16.5335C25.1153 16.446 25.6666 15.8248 25.6666 15.0888V12.911C25.6666 12.1751 25.1153 11.5538 24.3871 11.4653L22.5594 11.233C22.4096 10.7692 22.2239 10.322 22.0062 9.89714L23.1349 8.44367C23.5909 7.85547 23.5384 7.02617 23.0163 6.51964L21.4851 4.98839C20.9737 4.46145 20.1453 4.40895 19.5552 4.86492L18.1027 5.99367C17.6778 5.77686 17.2306 5.59117 16.7659 5.44047L16.5335 3.61659C16.446 2.8845 15.8248 2.33325 15.0888 2.33325H12.911C12.1751 2.33325 11.5538 2.8845 11.4663 3.61367L11.2339 5.44145C10.7692 5.59214 10.322 5.77784 9.89714 5.99464L8.44464 4.86492C7.85742 4.40992 7.02714 4.46145 6.52061 4.98353L4.98936 6.51478C4.46242 7.02617 4.40895 7.85645 4.86589 8.44561L5.99367 9.89811C5.77686 10.323 5.59117 10.7702 5.44047 11.2339L3.61659 11.4663C2.8845 11.5538 2.33325 12.1751 2.33325 12.911V15.0888C2.33325 15.8248 2.8845 16.446 3.61367 16.5355L5.44145 16.7678C5.59117 17.2316 5.77686 17.6788 5.99464 18.1037L4.86589 19.5571C4.40992 20.1453 4.46242 20.9746 4.9845 21.4812L6.51575 23.0124C7.02714 23.5384 7.85645 23.5909 8.44561 23.1349L9.89811 22.0062C10.323 22.223 10.7702 22.4087 11.2339 22.5594L11.4663 24.3833C11.5538 25.1153 12.1751 25.6666 12.911 25.6666ZM10.0858 21.0028C10.0119 20.962 9.92922 20.9416 9.84853 20.9416C9.74256 20.9416 9.63756 20.9766 9.54909 21.0427L7.8477 22.3649C7.64936 22.5166 7.37617 22.503 7.20603 22.327L5.66506 20.786C5.49395 20.6208 5.48034 20.3466 5.63297 20.1502L6.9552 18.4488C7.07575 18.2952 7.09131 18.0842 6.99603 17.9141C6.69659 17.3784 6.45547 16.798 6.28047 16.1894C6.227 16.0027 6.06756 15.8656 5.87506 15.8413L3.73228 15.5681C3.49311 15.5399 3.30547 15.3289 3.30547 15.0888V12.911C3.30547 12.6709 3.49311 12.4599 3.73714 12.4308L5.87603 12.1585C6.06853 12.1342 6.22797 11.9971 6.28145 11.8105C6.45645 11.2019 6.69659 10.6214 6.997 10.0858C7.09228 9.91561 7.07575 9.70464 6.95617 9.55103L5.63395 7.84964C5.48228 7.65325 5.49589 7.37909 5.67186 7.20797L7.21284 5.66603C7.37909 5.49492 7.65228 5.48131 7.84867 5.63395L9.55006 6.95617C9.70464 7.07478 9.91561 7.09228 10.0858 6.99603C10.6195 6.69756 11.1999 6.45645 11.8105 6.28145C11.9971 6.227 12.1342 6.06756 12.1585 5.87506L12.4317 3.73228C12.4599 3.49311 12.6709 3.30547 12.911 3.30547H15.0888C15.3289 3.30547 15.5399 3.49311 15.5701 3.73811L15.8423 5.877C15.8666 6.0695 16.0037 6.22895 16.1903 6.28242C16.8009 6.45839 17.3813 6.69853 17.9151 6.99797C18.0852 7.09325 18.2962 7.07672 18.4508 6.95714L20.1521 5.63492C20.3485 5.48228 20.6237 5.49589 20.7938 5.67284L22.3348 7.21381C22.5059 7.37909 22.5195 7.65325 22.3669 7.84964L21.0446 9.55103C20.9241 9.70464 20.9085 9.91561 21.0038 10.0858C21.3033 10.6214 21.5444 11.2019 21.7194 11.8105C21.7728 11.9971 21.9323 12.1342 22.1248 12.1585L24.2676 12.4317C24.5067 12.4599 24.6944 12.6709 24.6944 12.911V15.0888C24.6944 15.3289 24.5067 15.5399 24.2627 15.5701L22.1238 15.8423C21.9313 15.8666 21.7719 16.0037 21.7184 16.1903C21.5434 16.7989 21.3023 17.3794 21.0028 17.9151C20.9076 18.0852 20.9241 18.2962 21.0437 18.4498L22.3659 20.1512C22.5176 20.3476 22.5039 20.6217 22.328 20.7928L20.787 22.3338C20.6198 22.5059 20.3456 22.5185 20.1502 22.3669L18.4488 21.0446C18.2962 20.9251 18.0842 20.9085 17.9141 21.0038C17.3784 21.3033 16.798 21.5444 16.1894 21.7194C16.0027 21.7728 15.8656 21.9323 15.8413 22.1248L15.5681 24.2676C15.5399 24.5067 15.3289 24.6944 15.0888 24.6944H12.911C12.6709 24.6944 12.4599 24.5067 12.4308 24.2627L12.1585 22.1238C12.1342 21.9313 11.9971 21.7719 11.8105 21.7184C11.2019 21.5434 10.6214 21.3023 10.0858 21.0028ZM9.13857 14.0001C9.13857 16.6805 11.3193 18.8612 13.9997 18.8612C16.6801 18.8612 18.8608 16.6805 18.8608 14.0001C18.8608 11.3197 16.6801 9.139 13.9997 9.139C11.3193 9.139 9.13857 11.3197 9.13857 14.0001ZM10.1108 14.0001C10.1108 11.8554 11.855 10.1112 13.9997 10.1112C16.1444 10.1112 17.8886 11.8554 17.8886 14.0001C17.8886 16.1448 16.1444 17.889 13.9997 17.889C11.855 17.889 10.1108 16.1448 10.1108 14.0001Z" fill="#232323"/>
</svg>
