<svg width="30" height="30" viewBox="0 0 30 30" fill="none" xmlns="http://www.w3.org/2000/svg">
<path fill-rule="evenodd" clip-rule="evenodd" d="M22.146 9.80225C24.2171 9.80225 25.896 8.12331 25.896 6.05225C25.896 3.98118 24.2171 2.30225 22.146 2.30225C20.0749 2.30225 18.396 3.98118 18.396 6.05225C18.396 6.59548 18.5115 7.11173 18.7193 7.57779L10.1332 12.535C9.44825 11.634 8.36505 11.0523 7.146 11.0523C5.07493 11.0523 3.396 12.7313 3.396 14.8023C3.396 16.8734 5.07493 18.5523 7.146 18.5523C8.25569 18.5523 9.2528 18.0703 9.9394 17.3043L18.6072 22.3086C18.4704 22.6978 18.396 23.1164 18.396 23.5523C18.396 25.6234 20.0749 27.3023 22.146 27.3023C24.2171 27.3023 25.896 25.6234 25.896 23.5523C25.896 21.4813 24.2171 19.8023 22.146 19.8023C20.9587 19.8023 19.9003 20.3541 19.2132 21.2151L10.6077 16.2468C10.7934 15.8022 10.896 15.3142 10.896 14.8023C10.896 14.3979 10.832 14.0083 10.7135 13.6433L19.4134 8.62042C20.0974 9.34793 21.0686 9.80225 22.146 9.80225ZM22.146 8.48975C20.7998 8.48975 19.7085 7.39844 19.7085 6.05225C19.7085 4.70605 20.7998 3.61475 22.146 3.61475C23.4922 3.61475 24.5835 4.70605 24.5835 6.05225C24.5835 7.39844 23.4922 8.48975 22.146 8.48975ZM4.7085 14.8023C4.7085 16.1485 5.7998 17.2398 7.146 17.2398C8.49219 17.2398 9.5835 16.1485 9.5835 14.8023C9.5835 13.4562 8.49219 12.3648 7.146 12.3648C5.7998 12.3648 4.7085 13.4562 4.7085 14.8023ZM19.7085 23.5523C19.7085 24.8985 20.7998 25.9898 22.146 25.9898C23.4922 25.9898 24.5835 24.8985 24.5835 23.5523C24.5835 22.2062 23.4922 21.1148 22.146 21.1148C20.7998 21.1148 19.7085 22.2062 19.7085 23.5523Z" fill="#232323"/>
</svg>
