<svg width="198" height="162" viewBox="0 0 198 162" fill="none" xmlns="http://www.w3.org/2000/svg">
<path fill-rule="evenodd" clip-rule="evenodd" d="M208.54 113C208.54 108.316 212.336 104.52 217.02 104.52C221.704 104.52 225.5 108.316 225.5 113C225.5 175.031 175.031 225.5 113 225.5C50.9668 225.5 0.5 175.031 0.5 113C0.5 50.9668 50.9668 0.5 113 0.5C117.684 0.5 121.48 4.296 121.48 8.98013C121.48 13.6638 117.684 17.4598 113 17.4598C60.3201 17.4598 17.4598 60.3201 17.4598 113C17.4598 165.683 60.3201 208.54 113 208.54C165.683 208.54 208.54 165.683 208.54 113ZM207.075 31.2458C210.385 27.9384 215.756 27.9442 219.065 31.2598C222.373 34.5755 222.367 39.9461 219.049 43.2529L111.071 150.948C109.483 152.53 107.326 153.421 105.085 153.421C105.049 153.421 105.013 153.421 104.976 153.42C104.952 153.42 104.928 153.419 104.903 153.418C102.597 153.37 100.409 152.384 98.846 150.685L56.1637 104.331C52.9922 100.885 53.2128 95.5202 56.6585 92.3486C60.1069 89.1775 65.4691 89.4008 68.6407 92.8435L105.345 132.708L207.075 31.2458Z" fill="#D20A11"/>
</svg>
