<svg width="24" height="24" viewBox="0 0 24 24" fill="none" xmlns="http://www.w3.org/2000/svg">
<path fill-rule="evenodd" clip-rule="evenodd" d="M16.0594 3.17194H20.5312C20.5743 3.17191 20.617 3.18038 20.6568 3.19686C20.6967 3.21335 20.7329 3.23751 20.7633 3.26799C20.7938 3.29846 20.818 3.33464 20.8344 3.37447C20.8509 3.41429 20.8594 3.45697 20.8594 3.50006V5.87025C20.8594 5.95727 20.8248 6.04073 20.7633 6.10227C20.7017 6.16381 20.6183 6.19837 20.5312 6.19837H19.7396L18.8432 22.7989C18.8387 22.8827 18.8023 22.9617 18.7413 23.0194C18.6804 23.0772 18.5996 23.1094 18.5156 23.1094H5.48438C5.4004 23.1094 5.31962 23.0772 5.25866 23.0194C5.1977 22.9616 5.16118 22.8827 5.15663 22.7989L4.26038 6.19837H3.46875C3.38174 6.19833 3.29831 6.16374 3.23679 6.10221C3.17526 6.04069 3.14067 5.95726 3.14062 5.87025V3.50006C3.14062 3.41304 3.1752 3.32958 3.23673 3.26804C3.29827 3.20651 3.38173 3.17194 3.46875 3.17194H7.94062V1.21875C7.94067 1.13174 7.97526 1.04831 8.03679 0.986785C8.09831 0.925261 8.18174 0.890675 8.26875 0.890625H15.7313C15.8183 0.890625 15.9017 0.925195 15.9633 0.986731C16.0248 1.04827 16.0594 1.13173 16.0594 1.21875V3.17194ZM15.4031 1.54688H8.59687V3.17194H15.4031V1.54688ZM18.2048 22.4531L19.0826 6.19837H4.91756L5.79525 22.4531H18.2048ZM3.79688 5.54213H20.2031V3.82819H15.7376H15.7313H15.7251H8.27512H8.26875H8.26238H3.79688V5.54213ZM8.98196 18.0087C8.92044 18.0702 8.83701 18.1048 8.75 18.1049C8.66298 18.1049 8.57952 18.0703 8.51798 18.0088C8.45644 17.9472 8.42188 17.8638 8.42188 17.7767V9.87512C8.42188 9.7881 8.45644 9.70464 8.51798 9.6431C8.57952 9.58157 8.66298 9.547 8.75 9.547C8.83702 9.547 8.92048 9.58157 8.98202 9.6431C9.04356 9.70464 9.07812 9.7881 9.07812 9.87512V17.7767C9.07808 17.8638 9.04349 17.9472 8.98196 18.0087ZM12 18.1049C12.087 18.1048 12.1704 18.0702 12.232 18.0087C12.2935 17.9472 12.3281 17.8638 12.3281 17.7767V9.87512C12.3281 9.7881 12.2936 9.70464 12.232 9.6431C12.1705 9.58157 12.087 9.547 12 9.547C11.913 9.547 11.8295 9.58157 11.768 9.6431C11.7064 9.70464 11.6719 9.7881 11.6719 9.87512V17.7767C11.6719 17.8638 11.7065 17.9472 11.768 18.0087C11.8296 18.0702 11.913 18.1048 12 18.1049ZM15.482 18.0088C15.4205 18.0703 15.337 18.1049 15.25 18.1049C15.163 18.1049 15.0795 18.0703 15.018 18.0088C14.9564 17.9472 14.9219 17.8638 14.9219 17.7767V9.87512C14.9219 9.7881 14.9564 9.70464 15.018 9.6431C15.0795 9.58157 15.163 9.547 15.25 9.547C15.337 9.547 15.4205 9.58157 15.482 9.6431C15.5436 9.70464 15.5781 9.7881 15.5781 9.87512V17.7767C15.5781 17.8638 15.5436 17.9472 15.482 18.0088Z" fill="#232323"/>
</svg>
