<svg width="30" height="30" viewBox="0 0 30 30" fill="none" xmlns="http://www.w3.org/2000/svg">
<path fill-rule="evenodd" clip-rule="evenodd" d="M14.9999 6.25C23.975 6.25 29.6526 14.3014 29.8889 14.6452C30.0501 14.8777 30.0339 15.1889 29.8526 15.4039C29.5639 15.7451 22.7013 23.7503 14.9999 23.7503C7.29854 23.7503 0.43593 15.7451 0.147175 15.4039C-0.0490584 15.1702 -0.0490584 14.8289 0.147175 14.5964C0.43593 14.2551 7.29854 6.25 14.9999 6.25ZM1.46473 15.0002C2.95597 16.6127 8.8261 22.5003 14.9999 22.5003C21.2263 22.5003 27.1301 16.5277 28.5676 14.9664C27.3226 13.3789 22.2238 7.50006 14.9999 7.50006C8.81737 7.50006 2.95351 13.3864 1.46473 15.0002ZM10 15.0001C10 12.2425 12.2425 10 15.0001 10C17.7576 10 20.0001 12.2425 20.0001 15.0001C20.0001 17.7576 17.7576 20.0001 15.0001 20.0001C12.2425 20.0001 10 17.7576 10 15.0001ZM11.25 15.0001C11.25 17.0676 12.9325 18.7502 15.0001 18.7502C17.0676 18.7502 18.7501 17.0676 18.7501 15.0001C18.7501 12.9326 17.0676 11.2501 15.0001 11.2501C12.9325 11.2501 11.25 12.9326 11.25 15.0001Z" fill="#232323"/>
</svg>
